<svg width="16" height="14" viewBox="0 0 16 14" fill="none" xmlns="http://www.w3.org/2000/svg">
<path d="M0.5 8.90002C0.632608 8.90002 0.759785 8.9527 0.853553 9.04647C0.947322 9.14024 1 9.26742 1 9.40002V11.9C1 12.1652 1.10536 12.4196 1.29289 12.6071C1.48043 12.7947 1.73478 12.9 2 12.9H14C14.2652 12.9 14.5196 12.7947 14.7071 12.6071C14.8946 12.4196 15 12.1652 15 11.9V9.40002C15 9.26742 15.0527 9.14024 15.1464 9.04647C15.2402 8.9527 15.3674 8.90002 15.5 8.90002C15.6326 8.90002 15.7598 8.9527 15.8536 9.04647C15.9473 9.14024 16 9.26742 16 9.40002V11.9C16 12.4305 15.7893 12.9392 15.4142 13.3142C15.0391 13.6893 14.5304 13.9 14 13.9H2C1.46957 13.9 0.960859 13.6893 0.585786 13.3142C0.210714 12.9392 0 12.4305 0 11.9V9.40002C0 9.26742 0.0526784 9.14024 0.146447 9.04647C0.240215 8.9527 0.367392 8.90002 0.5 8.90002Z" fill="black"/>
<path d="M7.64566 10.854C7.6921 10.9006 7.74728 10.9375 7.80802 10.9627C7.86877 10.9879 7.93389 11.0009 7.99966 11.0009C8.06542 11.0009 8.13054 10.9879 8.19129 10.9627C8.25203 10.9375 8.30721 10.9006 8.35366 10.854L11.3537 7.854C11.4475 7.76011 11.5003 7.63278 11.5003 7.5C11.5003 7.36722 11.4475 7.23989 11.3537 7.146C11.2598 7.05211 11.1324 6.99937 10.9997 6.99937C10.8669 6.99937 10.7395 7.05211 10.6457 7.146L8.49966 9.293V0.5C8.49966 0.367392 8.44698 0.240215 8.35321 0.146447C8.25944 0.0526784 8.13226 0 7.99966 0C7.86705 0 7.73987 0.0526784 7.6461 0.146447C7.55233 0.240215 7.49966 0.367392 7.49966 0.5V9.293L5.35366 7.146C5.25977 7.05211 5.13243 6.99937 4.99966 6.99937C4.86688 6.99937 4.73954 7.05211 4.64566 7.146C4.55177 7.23989 4.49902 7.36722 4.49902 7.5C4.49902 7.63278 4.55177 7.76011 4.64566 7.854L7.64566 10.854Z" fill="black"/>
</svg>
