<?xml version="1.0" encoding="utf-8"?>
<!-- Generator: Adobe Illustrator 26.0.1, SVG Export Plug-In . SVG Version: 6.00 Build 0)  -->
<svg version="1.1" id="Calque_1" xmlns="http://www.w3.org/2000/svg" xmlns:xlink="http://www.w3.org/1999/xlink" x="0px" y="0px"
	 width="471.1px" height="150.6px" viewBox="0 0 471.1 150.6" style="enable-background:new 0 0 471.1 150.6;" xml:space="preserve"
	>
<style type="text/css">
	.st0{fill:#FFFFFF;}
</style>
<g>
	<path class="st0" d="M274.7,127.2c-0.1,1.2-0.3,2.3-0.8,3.4c-0.3,1.1-0.9,2.2-1.5,3.4s-1.5,2.3-2.6,3.6l-1.5-1.3
		c0.9-1,1.6-2.1,2.2-3.1c0.6-1,1-2,1.4-2.9c0.3-1,0.6-2,0.8-3c0.1-1,0.2-2.2,0.2-3.3V99.1h2.1v24.4
		C274.9,124.8,274.9,126.1,274.7,127.2z"/>
	<path class="st0" d="M314.1,114.8c0,2.2-0.3,4.2-1,6.2c-0.7,2-1.6,3.7-2.9,5.2c-1.3,1.5-2.9,2.7-4.7,3.6c-1.8,0.9-3.9,1.3-6.3,1.3
		c-2.3,0-4.4-0.4-6.3-1.3c-1.8-0.9-3.4-2.1-4.7-3.6c-1.3-1.5-2.2-3.2-2.9-5.2c-0.6-2-1-4.1-1-6.2c0-2.2,0.3-4.2,1-6.2
		c0.7-2,1.6-3.7,2.9-5.2c1.3-1.5,2.9-2.7,4.7-3.6c1.8-0.9,3.9-1.3,6.3-1.3s4.4,0.4,6.3,1.3c1.8,0.9,3.4,2.1,4.7,3.6
		c1.3,1.5,2.2,3.2,2.9,5.2C313.7,110.6,314.1,112.7,314.1,114.8z M312,114.8c0-2-0.3-3.8-0.9-5.6c-0.6-1.7-1.5-3.3-2.5-4.6
		c-1.1-1.3-2.4-2.4-4.1-3.1c-1.6-0.8-3.4-1.2-5.3-1.2c-2,0-3.7,0.4-5.3,1.2c-1.6,0.8-2.9,1.8-4.1,3.1s-2,2.9-2.5,4.6
		s-0.9,3.6-0.9,5.6c0,2,0.3,3.8,0.9,5.6c0.6,1.7,1.4,3.3,2.5,4.6s2.4,2.4,4.1,3.1c1.6,0.8,3.4,1.2,5.3,1.2c2,0,3.7-0.4,5.3-1.2
		c1.6-0.8,2.9-1.8,4.1-3.1s2-2.9,2.5-4.6C311.7,118.7,312,116.8,312,114.8z"/>
	<path class="st0" d="M346.1,124.3c-0.5,1.4-1.2,2.6-2.2,3.6c-1,1-2.2,1.8-3.6,2.4s-3.1,0.9-5.2,0.9c-2,0-3.7-0.3-5.2-0.9
		c-1.5-0.6-2.7-1.5-3.6-2.4c-1-1-1.7-2.2-2.2-3.6c-0.5-1.4-0.7-2.8-0.7-4.3V99.1h2.1v21c0,1.4,0.2,2.7,0.6,3.8
		c0.4,1.1,1,2.1,1.8,2.9c0.8,0.8,1.8,1.5,3,1.9c1.2,0.4,2.6,0.7,4.1,0.7c1.5,0,2.9-0.2,4.1-0.7c1.2-0.5,2.2-1.1,3-1.9
		c0.8-0.8,1.5-1.8,1.8-2.9c0.4-1.1,0.6-2.4,0.6-3.8v-21h2.1v20.8C346.8,121.4,346.6,122.9,346.1,124.3z"/>
	<path class="st0" d="M376,107.5c0,2.3-0.8,4.2-2.3,5.7c-1.5,1.5-3.5,2.6-6,3.2l11.6,14.3h-2.4l-11.2-13.9c-0.8,0.1-1.7,0.1-2.7,0.1
		h-2.7v13.8h-2.1V99.1h7c1.4,0,2.8,0.1,4.1,0.5c1.3,0.3,2.5,0.8,3.5,1.5c1,0.7,1.8,1.5,2.4,2.6C375.8,104.8,376,106,376,107.5z
		 M373.9,107.6c0-1.2-0.3-2.2-0.8-3.1c-0.5-0.8-1.2-1.5-2-2.1c-0.8-0.6-1.8-0.9-2.9-1.2s-2.2-0.3-3.4-0.3h-4.8v14.3h2.9
		c1.5,0,2.9-0.1,4.3-0.5c1.3-0.3,2.4-0.8,3.4-1.5c1-0.6,1.7-1.4,2.3-2.4C373.7,109.9,373.9,108.8,373.9,107.6z"/>
	<path class="st0" d="M409.3,130.6l-19.8-28.4v28.4h-2V99.1h2l19.8,28.3V99.1h2v31.6L409.3,130.6L409.3,130.6z"/>
	<path class="st0" d="M446.7,130.6h-2.1l-3.4-8.5h-15.7l-3.3,8.5h-2.1L432.6,99h1.5L446.7,130.6z M426.3,120.3h14.3l-7.1-18.6
		L426.3,120.3z"/>
	<path class="st0" d="M455.6,130.6V99.1h2.1v29.8h13.5v1.8L455.6,130.6L455.6,130.6z"/>
</g>
<g>
	<path class="st0" d="M38.6,68.9c-3.3,5.8-8.4,11-17,11C7.1,79.9,0,67.1,0,53.8c0-14.3,9.1-29.4,29.3-29.4h9.3v-9.5l-7.5-8.5L52,0
		v71l8.2,7.8l-21.5,1V68.9H38.6z M38.6,35c-3.3-3.6-7.9-6.8-13.7-6.8c-9.8,0-11.8,8.8-11.8,15.4c0,17.3,7.7,24,17.1,24
		c3.9,0,6.2-1.1,8.3-2.8V35H38.6z"/>
	<path class="st0" d="M109.1,47.5H73.5c1.2,14.3,8.9,20.3,17.5,20.3c7.5,0,14.2-3.8,15.9-8.4l1.7,0.7c-4,10.1-11.9,20.3-25.1,20.3
		c-14.5,0-22.8-13-22.8-26.3c0-14.3,8.9-30.7,27-30.7c13.2,0,21.3,8.9,21.4,23.9V47.5L109.1,47.5L109.1,47.5z M94.8,43.1
		c0-11.9-4.8-16.5-9.7-16.5c-8.4,0-11.9,10.1-11.9,16.8v0.8h21.5L94.8,43.1L94.8,43.1z"/>
	<path class="st0" d="M160.4,13.5c-0.6,6.8-1.7,10.7-4.1,15.8c2.6,3,3.9,6.8,3.9,10.8c0,9.5-7.9,21.4-25.1,21.4
		c-2.4,0-4.7-0.3-6.7-0.9c-1.6,1.4-4.1,3.4-4.1,5c0,3.3,2.2,4.9,6.1,5.3h29.9c1.2,2,2.6,5.3,2.6,9.1c0,12.9-9.9,24.5-28.1,24.5
		c-15,0-22.2-4.8-22.2-12.5c0-5.4,5.8-8.5,9.4-10.1c-3.2-1.3-6.7-4.9-6.7-9c0-6.8,6-10.5,10.3-13.2c-6.9-2.9-10.3-9.1-10.3-15.7
		c0-9.5,7.7-21,24.9-21c2.1,0,4,0.2,5.7,0.6c2.9-0.9,7.7-2.7,14.1-10.2C160,13.3,160.4,13.5,160.4,13.5 M124.7,83.4
		c-2.4,1.9-3.7,4.4-3.7,7.5c0,7.3,5.3,11,15.3,11c12.4,0,18.2-6.9,18.2-12.2c0-2.8-0.4-4.9-1.6-6.3H124.7z M129.5,37.3
		c0,11.4,3.9,21.1,10.2,21.1c5.4,0,6.1-7.2,6.1-11.7c0-11.4-4.1-20.4-10.4-20.4C130,26.3,129.5,32.8,129.5,37.3"/>
	<path class="st0" d="M210.6,44c-4.9-11.7-11.4-15.5-16.5-15.5c-7.7,0-7.7,5.6-7.7,16.9v23.9l10.3,9.5h-31.9l8.2-9.5V32.9l-7.5-8.5
		h46V44H210.6z"/>
	<path class="st0" d="M240.6,80.1c-15.8,0-24.1-12.8-24.1-26.1c0-14.3,9.7-31,30.3-31c15.8,0,24.1,12.8,24.1,26.1
		C270.9,63.5,261.2,80.1,240.6,80.1 M230.6,43.9c0,17.3,6.3,32,16.1,32c8.2,0,10.3-10.9,10.3-16.7c0-17.3-6.4-32-16.2-32
		C231.6,27.3,230.6,37.3,230.6,43.9"/>
	<polygon class="st0" points="268.3,24.4 297.7,24.4 289.6,31.5 301.3,60.1 302.6,63.9 312.5,40 309.6,33.4 302.3,24.4 331.6,24.4 
		323.6,31.5 335.1,60.1 336.5,62.6 348.5,31.5 340.5,24.4 360.2,24.4 353.7,31.3 333.1,81.2 330.7,81.2 314.9,45.5 299.2,81.2 
		296.7,81.2 275.6,33.4 	"/>
	<path class="st0" d="M383.6,24.4H405l-2.4,6h-18.9v27.3c0,10.7,2.4,13.5,9,13.5c3.3,0,8.4-1.7,10.9-6.4l1.3,1.8
		c-5.3,9-11.3,13.5-20.3,13.5c-7.7,0-14.2-4.4-14.2-17.1V31.4l-7.3-7l20.6-15.8v15.8H383.6z"/>
	<path class="st0" d="M427.8,33.1c4.4-6.9,11.7-10.3,18.3-10.3c11.3,0,16.7,7.3,16.7,17.8v28.6h0.1l8.2,9.5h-29.8l8.1-9.4v-25
		c0-8.5-1.2-14-9.8-14c-4.1,0-8.3,1.8-11.9,6.5v32.3l8.2,9.5h-29.8l8.2-9.5V15.9L407,7.4L427.8,0V33.1z"/>
</g>
</svg>
