<svg version="1.1" id="Calque_1" xmlns="http://www.w3.org/2000/svg" x="0" y="0" width="471.1" height="150.6" xml:space="preserve"><style>.st0{fill:#fff}</style><path class="st0" d="M274.7 127.2c-.1 1.2-.3 2.3-.8 3.4-.3 1.1-.9 2.2-1.5 3.4s-1.5 2.3-2.6 3.6l-1.5-1.3c.9-1 1.6-2.1 2.2-3.1.6-1 1-2 1.4-2.9.3-1 .6-2 .8-3 .1-1 .2-2.2.2-3.3V99.1h2.1v24.4c-.1 1.3-.1 2.6-.3 3.7zM314.1 114.8c0 2.2-.3 4.2-1 6.2s-1.6 3.7-2.9 5.2c-1.3 1.5-2.9 2.7-4.7 3.6-1.8.9-3.9 1.3-6.3 1.3-2.3 0-4.4-.4-6.3-1.3-1.8-.9-3.4-2.1-4.7-3.6-1.3-1.5-2.2-3.2-2.9-5.2-.6-2-1-4.1-1-6.2 0-2.2.3-4.2 1-6.2s1.6-3.7 2.9-5.2c1.3-1.5 2.9-2.7 4.7-3.6 1.8-.9 3.9-1.3 6.3-1.3s4.4.4 6.3 1.3c1.8.9 3.4 2.1 4.7 3.6 1.3 1.5 2.2 3.2 2.9 5.2.6 2 1 4.1 1 6.2zm-2.1 0c0-2-.3-3.8-.9-5.6-.6-1.7-1.5-3.3-2.5-4.6-1.1-1.3-2.4-2.4-4.1-3.1-1.6-.8-3.4-1.2-5.3-1.2-2 0-3.7.4-5.3 1.2-1.6.8-2.9 1.8-4.1 3.1s-2 2.9-2.5 4.6-.9 3.6-.9 5.6c0 2 .3 3.8.9 5.6.6 1.7 1.4 3.3 2.5 4.6s2.4 2.4 4.1 3.1c1.6.8 3.4 1.2 5.3 1.2 2 0 3.7-.4 5.3-1.2 1.6-.8 2.9-1.8 4.1-3.1s2-2.9 2.5-4.6c.6-1.7.9-3.6.9-5.6zM346.1 124.3c-.5 1.4-1.2 2.6-2.2 3.6-1 1-2.2 1.8-3.6 2.4s-3.1.9-5.2.9c-2 0-3.7-.3-5.2-.9-1.5-.6-2.7-1.5-3.6-2.4-1-1-1.7-2.2-2.2-3.6-.5-1.4-.7-2.8-.7-4.3V99.1h2.1v21c0 1.4.2 2.7.6 3.8.4 1.1 1 2.1 1.8 2.9.8.8 1.8 1.5 3 1.9 1.2.4 2.6.7 4.1.7 1.5 0 2.9-.2 4.1-.7 1.2-.5 2.2-1.1 3-1.9.8-.8 1.5-1.8 1.8-2.9.4-1.1.6-2.4.6-3.8v-21h2.1v20.8c.2 1.5 0 3-.5 4.4zM376 107.5c0 2.3-.8 4.2-2.3 5.7-1.5 1.5-3.5 2.6-6 3.2l11.6 14.3h-2.4l-11.2-13.9c-.8.1-1.7.1-2.7.1h-2.7v13.8h-2.1V99.1h7c1.4 0 2.8.1 4.1.5 1.3.3 2.5.8 3.5 1.5s1.8 1.5 2.4 2.6c.6 1.1.8 2.3.8 3.8zm-2.1.1c0-1.2-.3-2.2-.8-3.1-.5-.8-1.2-1.5-2-2.1-.8-.6-1.8-.9-2.9-1.2s-2.2-.3-3.4-.3H360v14.3h2.9c1.5 0 2.9-.1 4.3-.5 1.3-.3 2.4-.8 3.4-1.5 1-.6 1.7-1.4 2.3-2.4.8-.9 1-2 1-3.2zM409.3 130.6l-19.8-28.4v28.4h-2V99.1h2l19.8 28.3V99.1h2v31.6l-2-.1zM446.7 130.6h-2.1l-3.4-8.5h-15.7l-3.3 8.5h-2.1L432.6 99h1.5l12.6 31.6zm-20.4-10.3h14.3l-7.1-18.6-7.2 18.6zM455.6 130.6V99.1h2.1v29.8h13.5v1.8l-15.6-.1z"/><g><path class="st0" d="M38.6 68.9c-3.3 5.8-8.4 11-17 11C7.1 79.9 0 67.1 0 53.8c0-14.3 9.1-29.4 29.3-29.4h9.3v-9.5l-7.5-8.5L52 0v71l8.2 7.8-21.5 1V68.9h-.1zm0-33.9c-3.3-3.6-7.9-6.8-13.7-6.8-9.8 0-11.8 8.8-11.8 15.4 0 17.3 7.7 24 17.1 24 3.9 0 6.2-1.1 8.3-2.8V35h.1zM109.1 47.5H73.5c1.2 14.3 8.9 20.3 17.5 20.3 7.5 0 14.2-3.8 15.9-8.4l1.7.7c-4 10.1-11.9 20.3-25.1 20.3-14.5 0-22.8-13-22.8-26.3 0-14.3 8.9-30.7 27-30.7 13.2 0 21.3 8.9 21.4 23.9v.2zm-14.3-4.4c0-11.9-4.8-16.5-9.7-16.5-8.4 0-11.9 10.1-11.9 16.8v.8h21.5l.1-1.1zM160.4 13.5c-.6 6.8-1.7 10.7-4.1 15.8 2.6 3 3.9 6.8 3.9 10.8 0 9.5-7.9 21.4-25.1 21.4-2.4 0-4.7-.3-6.7-.9-1.6 1.4-4.1 3.4-4.1 5 0 3.3 2.2 4.9 6.1 5.3h29.9c1.2 2 2.6 5.3 2.6 9.1 0 12.9-9.9 24.5-28.1 24.5-15 0-22.2-4.8-22.2-12.5 0-5.4 5.8-8.5 9.4-10.1-3.2-1.3-6.7-4.9-6.7-9 0-6.8 6-10.5 10.3-13.2-6.9-2.9-10.3-9.1-10.3-15.7 0-9.5 7.7-21 24.9-21 2.1 0 4 .2 5.7.6 2.9-.9 7.7-2.7 14.1-10.2 0-.1.4.1.4.1m-35.7 69.9c-2.4 1.9-3.7 4.4-3.7 7.5 0 7.3 5.3 11 15.3 11 12.4 0 18.2-6.9 18.2-12.2 0-2.8-.4-4.9-1.6-6.3h-28.2zm4.8-46.1c0 11.4 3.9 21.1 10.2 21.1 5.4 0 6.1-7.2 6.1-11.7 0-11.4-4.1-20.4-10.4-20.4-5.4 0-5.9 6.5-5.9 11M210.6 44c-4.9-11.7-11.4-15.5-16.5-15.5-7.7 0-7.7 5.6-7.7 16.9v23.9l10.3 9.5h-31.9l8.2-9.5V32.9l-7.5-8.5h46V44h-.9zM240.6 80.1c-15.8 0-24.1-12.8-24.1-26.1 0-14.3 9.7-31 30.3-31 15.8 0 24.1 12.8 24.1 26.1 0 14.4-9.7 31-30.3 31m-10-36.2c0 17.3 6.3 32 16.1 32 8.2 0 10.3-10.9 10.3-16.7 0-17.3-6.4-32-16.2-32-9.2.1-10.2 10.1-10.2 16.7M268.3 24.4h29.4l-8.1 7.1 11.7 28.6 1.3 3.8 9.9-23.9-2.9-6.6-7.3-9h29.3l-8 7.1 11.5 28.6 1.4 2.5 12-31.1-8-7.1h19.7l-6.5 6.9-20.6 49.9h-2.4l-15.8-35.7-15.7 35.7h-2.5l-21.1-47.8zM383.6 24.4H405l-2.4 6h-18.9v27.3c0 10.7 2.4 13.5 9 13.5 3.3 0 8.4-1.7 10.9-6.4l1.3 1.8c-5.3 9-11.3 13.5-20.3 13.5-7.7 0-14.2-4.4-14.2-17.1V31.4l-7.3-7 20.6-15.8v15.8h-.1zM427.8 33.1c4.4-6.9 11.7-10.3 18.3-10.3 11.3 0 16.7 7.3 16.7 17.8v28.6h.1l8.2 9.5h-29.8l8.1-9.4v-25c0-8.5-1.2-14-9.8-14-4.1 0-8.3 1.8-11.9 6.5v32.3l8.2 9.5h-29.8l8.2-9.5V15.9L407 7.4 427.8 0v33.1z"/></g></svg>
