<svg version="1.1" id="Calque_1" xmlns="http://www.w3.org/2000/svg" x="0" y="0" width="948" height="613" xml:space="preserve"><style>.st2{fill:none;stroke:#58cae2;stroke-miterlimit:10}</style><path d="M819.9 30.3zm54.3-41.6.4.3-.4-.3zM864-125.2l.4-.3-.4.3zm-29.6-26.4.2-.4-.2.4z" fill="none" stroke="#58cae2" stroke-miterlimit="10" stroke-opacity=".3"/><g opacity=".8"><path class="st2" d="M705.9 306.4c2.7 79.3-44.9 151.6-113.5 195.2-67.3 42.8-160 61-243.4 29.3M224.9 428.1c-1.1-1.6-2.2-3.2-3.3-4.9-21.7-34.2-32.2-68.7-33.8-102.1M349 530.9c-36.4-13.8-71-37.1-101-72.1M510.5 83.6C436.7 67.4 359.4 86 301.1 123c-69.5 44.2-117.3 117.7-113.4 198.1M705.9 306.4c-1.1-34.3-11.6-69.9-34-105C628.5 133 570.6 96.8 510.5 83.6M445.3 451.1c-8.3 9.8-18.3 18.4-29.3 25.4-7.6 4.8-15.9 9-24.6 12.4"/><path class="st2" d="M294.5 490.1c-16.5-6.4-32.3-16.5-46.6-31.3M224.9 428.1c-9.5-16.5-14.1-33-14.9-48.9M445.3 451.1c28.6-33.6 38-81.2 8.4-127.9-29.2-45.9-70-64.3-109.5-65.2M391.3 488.9c-29.5 11.4-64.3 13.7-96.8 1.2M344.2 258c-4.1-.1-8.1 0-12.2.3M332 258.2c-24.2 1.6-47.3 9.6-66.3 21.7-34.3 21.8-57.8 58.5-55.7 99.2M248 458.8c-7.1-7.4-13.8-15.9-20-25.6-1.1-1.7-2.1-3.4-3.1-5.2M354 448.5c-4.7 5.5-10.3 10.4-16.6 14.4-4.3 2.7-9 5.1-13.9 7"/><path class="st2" d="M268.9 470.5c-9.3-3.6-18.3-9.3-26.3-17.7M229.5 435.5c-5.3-9.3-8-18.7-8.4-27.6M354 448.5c16.2-19 21.5-45.9 4.7-72.2-16.5-25.9-39.5-36.3-61.9-36.8M323.5 469.9c-16.7 6.5-36.3 7.7-54.7.7M296.9 339.4c-2.3-.1-4.6 0-6.9.2M290 339.6c-13.6.9-26.7 5.4-37.4 12.2-19.4 12.3-32.6 33.1-31.5 56M242.6 452.9c-4-4.2-7.8-9-11.3-14.5-.6-1-1.2-1.9-1.8-2.9"/><path class="st2" d="M187.7 321.1c-35-132.7 36.7-259.3 149-330.7 147-93.4 380.8-102.9 515.5 109C955 261.2 878.3 429.9 741.6 516.8c-38.6 24.5-83.2 43.2-130.3 53.7 0 0-75 19-118.3-29M295.5 446.3c-2.4 2.8-5.2 5.2-8.3 7.2-2.1 1.4-4.5 2.5-7 3.5M253 457.4c-4.6-1.8-9.1-4.7-13.1-8.8M295.5 446.3c8.1-9.5 10.7-22.9 2.4-36.1M280.3 457c-8.3 3.2-18.2 3.9-27.3.3M239.8 448.5c-2-2.1-4.4-4.2-6.2-6.9"/></g></svg>
