<?xml version="1.0" standalone="no"?>
<!DOCTYPE svg PUBLIC "-//W3C//DTD SVG 20010904//EN"
 "http://www.w3.org/TR/2001/REC-SVG-20010904/DTD/svg10.dtd">
<svg version="1.0" xmlns="http://www.w3.org/2000/svg"
 width="300.000000pt" height="300.000000pt" viewBox="0 0 300.000000 300.000000"
 preserveAspectRatio="xMidYMid meet">
<metadata>
Created by potrace 1.14, written by Peter Selinger 2001-2017
</metadata>
<g transform="translate(0.000000,300.000000) scale(0.100000,-0.100000)"
fill="#000000" stroke="none">
<path d="M0 1500 l0 -1500 1500 0 1500 0 0 1500 0 1500 -1500 0 -1500 0 0
-1500z m1295 1060 c363 -23 593 -74 783 -175 210 -112 345 -282 414 -520 21
-72 23 -101 23 -280 l0 -200 -38 -110 c-177 -518 -454 -743 -1011 -823 -99
-14 -198 -17 -548 -17 -234 0 -429 3 -433 7 -4 3 43 81 104 172 l111 166 0
728 0 729 -24 36 c-14 19 -56 72 -94 116 -68 79 -102 134 -102 165 0 14 34 16
328 16 180 0 399 -5 487 -10z"/>
<path d="M1153 2463 l-43 -4 0 -950 0 -951 113 7 c231 14 391 53 512 126 191
115 325 374 357 691 34 338 -83 739 -266 906 -61 56 -167 106 -291 137 -152
38 -261 49 -382 38z"/>
</g>
</svg>
