<svg xmlns="http://www.w3.org/2000/svg">
  <defs>
    <style>
    .i { display: none }
    .i:target { display: inline }
    </style>
  </defs>

  <svg viewBox="0 0 16 14">
    <g id="download" class="i" fill="none">
      <path d="M0.5 8.90002C0.632608 8.90002 0.759785 8.9527 0.853553 9.04647C0.947322 9.14024 1 9.26742 1 9.40002V11.9C1 12.1652 1.10536 12.4196 1.29289 12.6071C1.48043 12.7947 1.73478 12.9 2 12.9H14C14.2652 12.9 14.5196 12.7947 14.7071 12.6071C14.8946 12.4196 15 12.1652 15 11.9V9.40002C15 9.26742 15.0527 9.14024 15.1464 9.04647C15.2402 8.9527 15.3674 8.90002 15.5 8.90002C15.6326 8.90002 15.7598 8.9527 15.8536 9.04647C15.9473 9.14024 16 9.26742 16 9.40002V11.9C16 12.4305 15.7893 12.9392 15.4142 13.3142C15.0391 13.6893 14.5304 13.9 14 13.9H2C1.46957 13.9 0.960859 13.6893 0.585786 13.3142C0.210714 12.9392 0 12.4305 0 11.9V9.40002C0 9.26742 0.0526784 9.14024 0.146447 9.04647C0.240215 8.9527 0.367392 8.90002 0.5 8.90002Z" fill="currentColor"/>
      <path d="M7.64566 10.854C7.6921 10.9006 7.74728 10.9375 7.80802 10.9627C7.86877 10.9879 7.93389 11.0009 7.99966 11.0009C8.06542 11.0009 8.13054 10.9879 8.19129 10.9627C8.25203 10.9375 8.30721 10.9006 8.35366 10.854L11.3537 7.854C11.4475 7.76011 11.5003 7.63278 11.5003 7.5C11.5003 7.36722 11.4475 7.23989 11.3537 7.146C11.2598 7.05211 11.1324 6.99937 10.9997 6.99937C10.8669 6.99937 10.7395 7.05211 10.6457 7.146L8.49966 9.293V0.5C8.49966 0.367392 8.44698 0.240215 8.35321 0.146447C8.25944 0.0526784 8.13226 0 7.99966 0C7.86705 0 7.73987 0.0526784 7.6461 0.146447C7.55233 0.240215 7.49966 0.367392 7.49966 0.5V9.293L5.35366 7.146C5.25977 7.05211 5.13243 6.99937 4.99966 6.99937C4.86688 6.99937 4.73954 7.05211 4.64566 7.146C4.55177 7.23989 4.49902 7.36722 4.49902 7.5C4.49902 7.63278 4.55177 7.76011 4.64566 7.854L7.64566 10.854Z" fill="currentColor"/>
    </g>
  </svg>

  <svg viewBox="0 0 16 12">
    <g id="eye" class="i" fill="none">
      <path d="M16 6C16 6 13 0.5 8 0.5C3 0.5 0 6 0 6C0 6 3 11.5 8 11.5C13 11.5 16 6 16 6ZM1.173 6C1.65651 5.26512 2.21264 4.58069 2.833 3.957C4.12 2.668 5.88 1.5 8 1.5C10.12 1.5 11.879 2.668 13.168 3.957C13.7884 4.58069 14.3445 5.26512 14.828 6C14.77 6.087 14.706 6.183 14.633 6.288C14.298 6.768 13.803 7.408 13.168 8.043C11.879 9.332 10.119 10.5 8 10.5C5.88 10.5 4.121 9.332 2.832 8.043C2.21165 7.41931 1.65552 6.73487 1.172 6H1.173Z" fill="currentColor"/>
      <path d="M8 3.5C7.33696 3.5 6.70107 3.76339 6.23223 4.23223C5.76339 4.70107 5.5 5.33696 5.5 6C5.5 6.66304 5.76339 7.29893 6.23223 7.76777C6.70107 8.23661 7.33696 8.5 8 8.5C8.66304 8.5 9.29893 8.23661 9.76777 7.76777C10.2366 7.29893 10.5 6.66304 10.5 6C10.5 5.33696 10.2366 4.70107 9.76777 4.23223C9.29893 3.76339 8.66304 3.5 8 3.5ZM4.5 6C4.5 5.07174 4.86875 4.1815 5.52513 3.52513C6.1815 2.86875 7.07174 2.5 8 2.5C8.92826 2.5 9.8185 2.86875 10.4749 3.52513C11.1313 4.1815 11.5 5.07174 11.5 6C11.5 6.92826 11.1313 7.8185 10.4749 8.47487C9.8185 9.13125 8.92826 9.5 8 9.5C7.07174 9.5 6.1815 9.13125 5.52513 8.47487C4.86875 7.8185 4.5 6.92826 4.5 6Z" fill="currentColor"/>
    </g>
  </svg>

</svg>
